<?xml version="1.0" encoding="utf-8"?>
<svg version="1.1" xmlns:xlink="http://www.w3.org/1999/xlink" width="11px" height="11px" xmlns="http://www.w3.org/2000/svg">
  <defs>
    <pattern id="BGPattern" patternUnits="userSpaceOnUse" alignment="0 0" imageRepeat="None" />
    <mask fill="white" id="Clip115">
      <path d="M 10.48583569405099 0  C 10.703966005665723 0  10.85717658168083 0.10156250000000044  10.945467422096318 0.3046875000000001  C 11.033758262511805 0.5182291666666655  10.997403210576016 0.7005208333333325  10.836402266288953 0.8515624999999998  L 6.995750708215297 4.703125000000001  L 6.995750708215297 10.5  C 6.995750708215297 10.71875  6.894475920679887 10.872395833333334  6.691926345609065 10.9609375  C 6.624409820585459 10.986979166666666  6.559490084985836 11  6.497167138810199 11  C 6.356940509915014 11  6.240084985835694 10.950520833333334  6.146600566572238 10.8515625  L 4.152266288951841 8.8515625  C 4.053588290840415 8.752604166666666  4.004249291784703 8.635416666666666  4.004249291784703 8.5  L 4.004249291784703 4.703125000000001  L 0.16359773371104816 0.8515624999999998  C 0.0025967894239848893 0.7005208333333325  -0.03375826251180359 0.5182291666666655  0.05453257790368272 0.3046875000000001  C 0.14282341831916903 0.10156250000000044  0.29603399433427763 0  0.5141643059490085 0  L 10.48583569405099 0  Z " fill-rule="evenodd" />
    </mask>
  </defs>
  <g transform="matrix(1 0 0 1 -87 -88 )">
    <path d="M 10.48583569405099 0  C 10.703966005665723 0  10.85717658168083 0.10156250000000044  10.945467422096318 0.3046875000000001  C 11.033758262511805 0.5182291666666655  10.997403210576016 0.7005208333333325  10.836402266288953 0.8515624999999998  L 6.995750708215297 4.703125000000001  L 6.995750708215297 10.5  C 6.995750708215297 10.71875  6.894475920679887 10.872395833333334  6.691926345609065 10.9609375  C 6.624409820585459 10.986979166666666  6.559490084985836 11  6.497167138810199 11  C 6.356940509915014 11  6.240084985835694 10.950520833333334  6.146600566572238 10.8515625  L 4.152266288951841 8.8515625  C 4.053588290840415 8.752604166666666  4.004249291784703 8.635416666666666  4.004249291784703 8.5  L 4.004249291784703 4.703125000000001  L 0.16359773371104816 0.8515624999999998  C 0.0025967894239848893 0.7005208333333325  -0.03375826251180359 0.5182291666666655  0.05453257790368272 0.3046875000000001  C 0.14282341831916903 0.10156250000000044  0.29603399433427763 0  0.5141643059490085 0  L 10.48583569405099 0  Z " fill-rule="nonzero" fill="rgba(255, 255, 255, 1)" stroke="none" transform="matrix(1 0 0 1 87 88 )" class="fill" />
    <path d="M 10.48583569405099 0  C 10.703966005665723 0  10.85717658168083 0.10156250000000044  10.945467422096318 0.3046875000000001  C 11.033758262511805 0.5182291666666655  10.997403210576016 0.7005208333333325  10.836402266288953 0.8515624999999998  L 6.995750708215297 4.703125000000001  L 6.995750708215297 10.5  C 6.995750708215297 10.71875  6.894475920679887 10.872395833333334  6.691926345609065 10.9609375  C 6.624409820585459 10.986979166666666  6.559490084985836 11  6.497167138810199 11  C 6.356940509915014 11  6.240084985835694 10.950520833333334  6.146600566572238 10.8515625  L 4.152266288951841 8.8515625  C 4.053588290840415 8.752604166666666  4.004249291784703 8.635416666666666  4.004249291784703 8.5  L 4.004249291784703 4.703125000000001  L 0.16359773371104816 0.8515624999999998  C 0.0025967894239848893 0.7005208333333325  -0.03375826251180359 0.5182291666666655  0.05453257790368272 0.3046875000000001  C 0.14282341831916903 0.10156250000000044  0.29603399433427763 0  0.5141643059490085 0  L 10.48583569405099 0  Z " stroke-width="0" stroke-dasharray="0" stroke="rgba(255, 255, 255, 0)" fill="none" transform="matrix(1 0 0 1 87 88 )" class="stroke" mask="url(#Clip115)" />
  </g>
</svg>