<?xml version="1.0" encoding="utf-8"?>
<svg version="1.1" xmlns:xlink="http://www.w3.org/1999/xlink" width="5px" height="5px" xmlns="http://www.w3.org/2000/svg">
  <defs>
    <pattern id="BGPattern" patternUnits="userSpaceOnUse" alignment="0 0" imageRepeat="None" />
    <mask fill="white" id="Clip117">
      <path d="M 4.882154882154882 3.737373737373737  C 4.9607182940516275 3.815937149270482  5 3.911335578002244  5 4.023569023569023  C 5 4.135802469135803  4.9607182940516275 4.231200897867565  4.882154882154882 4.30976430976431  L 4.30976430976431 4.882154882154882  C 4.2312008978675655 4.9607182940516275  4.135802469135802 5  4.023569023569023 5  C 3.9113355780022454 5  3.815937149270483 4.9607182940516275  3.7373737373737375 4.882154882154882  L 2.5 3.6447811447811453  L 1.2626262626262628 4.882154882154882  C 1.1840628507295174 4.9607182940516275  1.0886644219977555 5  0.9764309764309764 5  C 0.8641975308641976 5  0.7687991021324356 4.9607182940516275  0.6902356902356903 4.882154882154882  L 0.11784511784511785 4.30976430976431  C 0.03928170594837265 4.231200897867565  0 4.135802469135803  0 4.023569023569023  C 0 3.911335578002244  0.03928170594837265 3.815937149270482  0.11784511784511785 3.737373737373737  L 1.355218855218855 2.5  L 0.11784511784511785 1.2626262626262625  C 0.03928170594837265 1.184062850729517  0 1.0886644219977555  0 0.9764309764309764  C 0 0.8641975308641975  0.03928170594837265 0.7687991021324347  0.11784511784511785 0.6902356902356904  L 0.6902356902356903 0.11784511784511786  C 0.7687991021324356 0.039281705948372436  0.8641975308641976 0  0.9764309764309764 0  C 1.0886644219977555 0  1.1840628507295174 0.039281705948372436  1.2626262626262628 0.11784511784511786  L 2.5 1.3552188552188555  L 3.7373737373737375 0.11784511784511786  C 3.815937149270483 0.039281705948372436  3.9113355780022454 0  4.023569023569023 0  C 4.135802469135802 0  4.2312008978675655 0.039281705948372436  4.30976430976431 0.11784511784511786  L 4.882154882154882 0.6902356902356904  C 4.9607182940516275 0.7687991021324347  5 0.8641975308641975  5 0.9764309764309764  C 5 1.0886644219977555  4.9607182940516275 1.184062850729517  4.882154882154882 1.2626262626262625  L 3.6447811447811445 2.5  L 4.882154882154882 3.737373737373737  Z " fill-rule="evenodd" />
    </mask>
  </defs>
  <g transform="matrix(1 0 0 1 -326 -134 )">
    <path d="M 4.882154882154882 3.737373737373737  C 4.9607182940516275 3.815937149270482  5 3.911335578002244  5 4.023569023569023  C 5 4.135802469135803  4.9607182940516275 4.231200897867565  4.882154882154882 4.30976430976431  L 4.30976430976431 4.882154882154882  C 4.2312008978675655 4.9607182940516275  4.135802469135802 5  4.023569023569023 5  C 3.9113355780022454 5  3.815937149270483 4.9607182940516275  3.7373737373737375 4.882154882154882  L 2.5 3.6447811447811453  L 1.2626262626262628 4.882154882154882  C 1.1840628507295174 4.9607182940516275  1.0886644219977555 5  0.9764309764309764 5  C 0.8641975308641976 5  0.7687991021324356 4.9607182940516275  0.6902356902356903 4.882154882154882  L 0.11784511784511785 4.30976430976431  C 0.03928170594837265 4.231200897867565  0 4.135802469135803  0 4.023569023569023  C 0 3.911335578002244  0.03928170594837265 3.815937149270482  0.11784511784511785 3.737373737373737  L 1.355218855218855 2.5  L 0.11784511784511785 1.2626262626262625  C 0.03928170594837265 1.184062850729517  0 1.0886644219977555  0 0.9764309764309764  C 0 0.8641975308641975  0.03928170594837265 0.7687991021324347  0.11784511784511785 0.6902356902356904  L 0.6902356902356903 0.11784511784511786  C 0.7687991021324356 0.039281705948372436  0.8641975308641976 0  0.9764309764309764 0  C 1.0886644219977555 0  1.1840628507295174 0.039281705948372436  1.2626262626262628 0.11784511784511786  L 2.5 1.3552188552188555  L 3.7373737373737375 0.11784511784511786  C 3.815937149270483 0.039281705948372436  3.9113355780022454 0  4.023569023569023 0  C 4.135802469135802 0  4.2312008978675655 0.039281705948372436  4.30976430976431 0.11784511784511786  L 4.882154882154882 0.6902356902356904  C 4.9607182940516275 0.7687991021324347  5 0.8641975308641975  5 0.9764309764309764  C 5 1.0886644219977555  4.9607182940516275 1.184062850729517  4.882154882154882 1.2626262626262625  L 3.6447811447811445 2.5  L 4.882154882154882 3.737373737373737  Z " fill-rule="nonzero" fill="rgba(251, 251, 251, 1)" stroke="none" transform="matrix(1 0 0 1 326 134 )" class="fill" />
    <path d="M 4.882154882154882 3.737373737373737  C 4.9607182940516275 3.815937149270482  5 3.911335578002244  5 4.023569023569023  C 5 4.135802469135803  4.9607182940516275 4.231200897867565  4.882154882154882 4.30976430976431  L 4.30976430976431 4.882154882154882  C 4.2312008978675655 4.9607182940516275  4.135802469135802 5  4.023569023569023 5  C 3.9113355780022454 5  3.815937149270483 4.9607182940516275  3.7373737373737375 4.882154882154882  L 2.5 3.6447811447811453  L 1.2626262626262628 4.882154882154882  C 1.1840628507295174 4.9607182940516275  1.0886644219977555 5  0.9764309764309764 5  C 0.8641975308641976 5  0.7687991021324356 4.9607182940516275  0.6902356902356903 4.882154882154882  L 0.11784511784511785 4.30976430976431  C 0.03928170594837265 4.231200897867565  0 4.135802469135803  0 4.023569023569023  C 0 3.911335578002244  0.03928170594837265 3.815937149270482  0.11784511784511785 3.737373737373737  L 1.355218855218855 2.5  L 0.11784511784511785 1.2626262626262625  C 0.03928170594837265 1.184062850729517  0 1.0886644219977555  0 0.9764309764309764  C 0 0.8641975308641975  0.03928170594837265 0.7687991021324347  0.11784511784511785 0.6902356902356904  L 0.6902356902356903 0.11784511784511786  C 0.7687991021324356 0.039281705948372436  0.8641975308641976 0  0.9764309764309764 0  C 1.0886644219977555 0  1.1840628507295174 0.039281705948372436  1.2626262626262628 0.11784511784511786  L 2.5 1.3552188552188555  L 3.7373737373737375 0.11784511784511786  C 3.815937149270483 0.039281705948372436  3.9113355780022454 0  4.023569023569023 0  C 4.135802469135802 0  4.2312008978675655 0.039281705948372436  4.30976430976431 0.11784511784511786  L 4.882154882154882 0.6902356902356904  C 4.9607182940516275 0.7687991021324347  5 0.8641975308641975  5 0.9764309764309764  C 5 1.0886644219977555  4.9607182940516275 1.184062850729517  4.882154882154882 1.2626262626262625  L 3.6447811447811445 2.5  L 4.882154882154882 3.737373737373737  Z " stroke-width="0" stroke-dasharray="0" stroke="rgba(255, 255, 255, 0)" fill="none" transform="matrix(1 0 0 1 326 134 )" class="stroke" mask="url(#Clip117)" />
  </g>
</svg>