<?xml version="1.0" encoding="utf-8"?>
<svg version="1.1" xmlns:xlink="http://www.w3.org/1999/xlink" width="21px" height="21px" xmlns="http://www.w3.org/2000/svg">
  <defs>
    <pattern id="BGPattern" patternUnits="userSpaceOnUse" alignment="0 0" imageRepeat="None" />
    <mask fill="white" id="Clip118">
      <path d="M 0 5.5  C 0 2.42  2.42 0  5.5 0  C 8.58 0  11 2.42  11 5.5  C 11 8.58  8.58 11  5.5 11  C 2.42 11  0 8.58  0 5.5  Z " fill-rule="evenodd" />
    </mask>
  </defs>
  <g transform="matrix(1 0 0 1 -18 -41 )">
    <path d="M 0 5.5  C 0 2.42  2.42 0  5.5 0  C 8.58 0  11 2.42  11 5.5  C 11 8.58  8.58 11  5.5 11  C 2.42 11  0 8.58  0 5.5  Z " fill-rule="nonzero" fill="rgba(255, 31, 0, 1)" stroke="none" transform="matrix(1 0 0 1 22 45 )" class="fill" />
    <path d="M 0 5.5  C 0 2.42  2.42 0  5.5 0  C 8.58 0  11 2.42  11 5.5  C 11 8.58  8.58 11  5.5 11  C 2.42 11  0 8.58  0 5.5  Z " stroke-width="2" stroke-dasharray="0" stroke="rgba(255, 255, 255, 1)" fill="none" transform="matrix(1 0 0 1 22 45 )" class="stroke" mask="url(#Clip118)" />
  </g>
  <style>svg { filter: drop-shadow(1px 1px 2.5px rgba(0, 0, 0, 0.6980392156862745)); }</style>
</svg>