<?xml version="1.0" encoding="utf-8"?>
<svg version="1.1" xmlns:xlink="http://www.w3.org/1999/xlink" width="9px" height="9px" xmlns="http://www.w3.org/2000/svg">
  <defs>
    <pattern id="BGPattern" patternUnits="userSpaceOnUse" alignment="0 0" imageRepeat="None" />
    <mask fill="white" id="Clip94">
      <path d="M 5.51953125 5.51953125  C 5.993689903846154 5.045372596153846  6.230769230769231 4.474759615384615  6.230769230769231 3.8076923076923084  C 6.230769230769231 3.140624999999999  5.993689903846154 2.5700120192307687  5.51953125 2.0958533653846154  C 5.045372596153847 1.6216947115384608  4.474759615384616 1.3846153846153846  3.8076923076923075 1.3846153846153846  C 3.1406250000000004 1.3846153846153846  2.5700120192307696 1.6216947115384608  2.0958533653846154 2.0958533653846154  C 1.6216947115384617 2.5700120192307687  1.3846153846153846 3.140624999999999  1.3846153846153846 3.8076923076923084  C 1.3846153846153846 4.474759615384615  1.6216947115384617 5.045372596153846  2.0958533653846154 5.51953125  C 2.5700120192307696 5.993689903846152  3.1406250000000004 6.230769230769231  3.8076923076923075 6.230769230769231  C 4.474759615384616 6.230769230769231  5.045372596153847 5.993689903846152  5.51953125 5.51953125  Z M 8.799879807692308 7.820913461538462  C 8.93329326923077 7.954326923076923  9 8.116586538461538  9 8.307692307692308  C 9 8.495192307692308  8.931490384615385 8.657451923076923  8.794471153846153 8.794471153846153  C 8.657451923076923 8.931490384615385  8.495192307692308 9  8.307692307692308 9  C 8.11298076923077 9  7.950721153846154 8.931490384615385  7.820913461538462 8.794471153846153  L 5.965745192307692 6.944711538461538  C 5.3203125 7.391826923076923  4.600961538461539 7.615384615384615  3.8076923076923075 7.615384615384615  C 3.292067307692308 7.615384615384615  2.7989783653846154 7.515324519230769  2.328425480769231 7.3152043269230775  C 1.8578725961538463 7.115084134615385  1.4522235576923077 6.844651442307692  1.1114783653846154 6.50390625  C 0.7707331730769231 6.163161057692308  0.5003004807692308 5.757512019230769  0.30018028846153844 5.286959134615385  C 0.10006009615384616 4.81640625  0 4.323317307692307  0 3.8076923076923084  C 0 3.2920673076923066  0.10006009615384616 2.7989783653846154  0.30018028846153844 2.328425480769231  C 0.5003004807692308 1.8578725961538458  0.7707331730769231 1.4522235576923082  1.1114783653846154 1.1114783653846154  C 1.4522235576923077 0.7707331730769235  1.8578725961538463 0.5003004807692306  2.328425480769231 0.30018028846153877  C 2.7989783653846154 0.10006009615384592  3.292067307692308 0  3.8076923076923075 0  C 4.3233173076923075 0  4.81640625 0.10006009615384592  5.286959134615385 0.30018028846153877  C 5.757512019230769 0.5003004807692306  6.163161057692308 0.7707331730769235  6.50390625 1.1114783653846154  C 6.844651442307692 1.4522235576923082  7.115084134615385 1.8578725961538458  7.315204326923077 2.328425480769231  C 7.515324519230769 2.7989783653846154  7.615384615384615 3.2920673076923066  7.615384615384615 3.8076923076923084  C 7.615384615384615 4.600961538461538  7.391826923076923 5.320312499999999  6.944711538461538 5.965745192307692  L 8.799879807692308 7.820913461538462  Z " fill-rule="evenodd" />
    </mask>
  </defs>
  <g transform="matrix(1 0 0 1 -357 -271 )">
    <path d="M 5.51953125 5.51953125  C 5.993689903846154 5.045372596153846  6.230769230769231 4.474759615384615  6.230769230769231 3.8076923076923084  C 6.230769230769231 3.140624999999999  5.993689903846154 2.5700120192307687  5.51953125 2.0958533653846154  C 5.045372596153847 1.6216947115384608  4.474759615384616 1.3846153846153846  3.8076923076923075 1.3846153846153846  C 3.1406250000000004 1.3846153846153846  2.5700120192307696 1.6216947115384608  2.0958533653846154 2.0958533653846154  C 1.6216947115384617 2.5700120192307687  1.3846153846153846 3.140624999999999  1.3846153846153846 3.8076923076923084  C 1.3846153846153846 4.474759615384615  1.6216947115384617 5.045372596153846  2.0958533653846154 5.51953125  C 2.5700120192307696 5.993689903846152  3.1406250000000004 6.230769230769231  3.8076923076923075 6.230769230769231  C 4.474759615384616 6.230769230769231  5.045372596153847 5.993689903846152  5.51953125 5.51953125  Z M 8.799879807692308 7.820913461538462  C 8.93329326923077 7.954326923076923  9 8.116586538461538  9 8.307692307692308  C 9 8.495192307692308  8.931490384615385 8.657451923076923  8.794471153846153 8.794471153846153  C 8.657451923076923 8.931490384615385  8.495192307692308 9  8.307692307692308 9  C 8.11298076923077 9  7.950721153846154 8.931490384615385  7.820913461538462 8.794471153846153  L 5.965745192307692 6.944711538461538  C 5.3203125 7.391826923076923  4.600961538461539 7.615384615384615  3.8076923076923075 7.615384615384615  C 3.292067307692308 7.615384615384615  2.7989783653846154 7.515324519230769  2.328425480769231 7.3152043269230775  C 1.8578725961538463 7.115084134615385  1.4522235576923077 6.844651442307692  1.1114783653846154 6.50390625  C 0.7707331730769231 6.163161057692308  0.5003004807692308 5.757512019230769  0.30018028846153844 5.286959134615385  C 0.10006009615384616 4.81640625  0 4.323317307692307  0 3.8076923076923084  C 0 3.2920673076923066  0.10006009615384616 2.7989783653846154  0.30018028846153844 2.328425480769231  C 0.5003004807692308 1.8578725961538458  0.7707331730769231 1.4522235576923082  1.1114783653846154 1.1114783653846154  C 1.4522235576923077 0.7707331730769235  1.8578725961538463 0.5003004807692306  2.328425480769231 0.30018028846153877  C 2.7989783653846154 0.10006009615384592  3.292067307692308 0  3.8076923076923075 0  C 4.3233173076923075 0  4.81640625 0.10006009615384592  5.286959134615385 0.30018028846153877  C 5.757512019230769 0.5003004807692306  6.163161057692308 0.7707331730769235  6.50390625 1.1114783653846154  C 6.844651442307692 1.4522235576923082  7.115084134615385 1.8578725961538458  7.315204326923077 2.328425480769231  C 7.515324519230769 2.7989783653846154  7.615384615384615 3.2920673076923066  7.615384615384615 3.8076923076923084  C 7.615384615384615 4.600961538461538  7.391826923076923 5.320312499999999  6.944711538461538 5.965745192307692  L 8.799879807692308 7.820913461538462  Z " fill-rule="nonzero" fill="rgba(0, 0, 0, 1)" stroke="none" transform="matrix(1 0 0 1 357 271 )" class="fill" />
    <path d="M 5.51953125 5.51953125  C 5.993689903846154 5.045372596153846  6.230769230769231 4.474759615384615  6.230769230769231 3.8076923076923084  C 6.230769230769231 3.140624999999999  5.993689903846154 2.5700120192307687  5.51953125 2.0958533653846154  C 5.045372596153847 1.6216947115384608  4.474759615384616 1.3846153846153846  3.8076923076923075 1.3846153846153846  C 3.1406250000000004 1.3846153846153846  2.5700120192307696 1.6216947115384608  2.0958533653846154 2.0958533653846154  C 1.6216947115384617 2.5700120192307687  1.3846153846153846 3.140624999999999  1.3846153846153846 3.8076923076923084  C 1.3846153846153846 4.474759615384615  1.6216947115384617 5.045372596153846  2.0958533653846154 5.51953125  C 2.5700120192307696 5.993689903846152  3.1406250000000004 6.230769230769231  3.8076923076923075 6.230769230769231  C 4.474759615384616 6.230769230769231  5.045372596153847 5.993689903846152  5.51953125 5.51953125  Z " stroke-width="0" stroke-dasharray="0" stroke="rgba(255, 255, 255, 0)" fill="none" transform="matrix(1 0 0 1 357 271 )" class="stroke" mask="url(#Clip94)" />
    <path d="M 8.799879807692308 7.820913461538462  C 8.93329326923077 7.954326923076923  9 8.116586538461538  9 8.307692307692308  C 9 8.495192307692308  8.931490384615385 8.657451923076923  8.794471153846153 8.794471153846153  C 8.657451923076923 8.931490384615385  8.495192307692308 9  8.307692307692308 9  C 8.11298076923077 9  7.950721153846154 8.931490384615385  7.820913461538462 8.794471153846153  L 5.965745192307692 6.944711538461538  C 5.3203125 7.391826923076923  4.600961538461539 7.615384615384615  3.8076923076923075 7.615384615384615  C 3.292067307692308 7.615384615384615  2.7989783653846154 7.515324519230769  2.328425480769231 7.3152043269230775  C 1.8578725961538463 7.115084134615385  1.4522235576923077 6.844651442307692  1.1114783653846154 6.50390625  C 0.7707331730769231 6.163161057692308  0.5003004807692308 5.757512019230769  0.30018028846153844 5.286959134615385  C 0.10006009615384616 4.81640625  0 4.323317307692307  0 3.8076923076923084  C 0 3.2920673076923066  0.10006009615384616 2.7989783653846154  0.30018028846153844 2.328425480769231  C 0.5003004807692308 1.8578725961538458  0.7707331730769231 1.4522235576923082  1.1114783653846154 1.1114783653846154  C 1.4522235576923077 0.7707331730769235  1.8578725961538463 0.5003004807692306  2.328425480769231 0.30018028846153877  C 2.7989783653846154 0.10006009615384592  3.292067307692308 0  3.8076923076923075 0  C 4.3233173076923075 0  4.81640625 0.10006009615384592  5.286959134615385 0.30018028846153877  C 5.757512019230769 0.5003004807692306  6.163161057692308 0.7707331730769235  6.50390625 1.1114783653846154  C 6.844651442307692 1.4522235576923082  7.115084134615385 1.8578725961538458  7.315204326923077 2.328425480769231  C 7.515324519230769 2.7989783653846154  7.615384615384615 3.2920673076923066  7.615384615384615 3.8076923076923084  C 7.615384615384615 4.600961538461538  7.391826923076923 5.320312499999999  6.944711538461538 5.965745192307692  L 8.799879807692308 7.820913461538462  Z " stroke-width="0" stroke-dasharray="0" stroke="rgba(255, 255, 255, 0)" fill="none" transform="matrix(1 0 0 1 357 271 )" class="stroke" mask="url(#Clip94)" />
  </g>
</svg>