<?xml version="1.0" encoding="utf-8"?>
<svg version="1.1" xmlns:xlink="http://www.w3.org/1999/xlink" width="13px" height="13px" xmlns="http://www.w3.org/2000/svg">
  <defs>
    <pattern id="BGPattern" patternUnits="userSpaceOnUse" alignment="0 0" imageRepeat="None" />
    <mask fill="white" id="Clip106">
      <path d="M 8.031901041666666 8.031901041666668  C 8.455078125 7.608723958333332  8.666666666666666 7.098090277777778  8.666666666666666 6.5  C 8.666666666666666 5.901909722222221  8.455078125 5.391276041666666  8.031901041666666 4.968098958333334  C 7.608723958333334 4.544921875  7.098090277777779 4.333333333333334  6.5 4.333333333333334  C 5.901909722222222 4.333333333333334  5.391276041666667 4.544921875  4.968098958333333 4.968098958333334  C 4.544921875 5.391276041666666  4.333333333333333 5.901909722222221  4.333333333333333 6.5  C 4.333333333333333 7.098090277777778  4.544921875 7.608723958333332  4.968098958333333 8.031901041666668  C 5.391276041666667 8.455078125  5.901909722222222 8.666666666666668  6.5 8.666666666666668  C 7.098090277777779 8.666666666666668  7.608723958333334 8.455078125  8.031901041666666 8.031901041666668  Z M 8.861328125 4.138671875  C 9.510199652777779 4.787543402777776  9.834635416666666 5.574652777777776  9.834635416666666 6.5  C 9.834635416666666 7.425347222222222  9.510199652777779 8.212456597222223  8.861328125 8.861328125  C 8.212456597222223 9.510199652777777  7.425347222222222 9.834635416666666  6.5 9.834635416666666  C 5.574652777777779 9.834635416666666  4.787543402777779 9.510199652777777  4.138671875 8.861328125  C 3.4898003472222223 8.212456597222223  3.1653645833333335 7.425347222222222  3.1653645833333335 6.5  C 3.1653645833333335 5.574652777777776  3.4898003472222223 4.787543402777776  4.138671875 4.138671875  C 4.787543402777779 3.489800347222221  5.574652777777779 3.165364583333334  6.5 3.165364583333334  C 7.425347222222222 3.165364583333334  8.212456597222223 3.489800347222221  8.861328125 4.138671875  Z M 10.520182291666666 2.479817708333334  C 10.672526041666666 2.632161458333334  10.748697916666666 2.8155381944444438  10.748697916666666 3.029947916666666  C 10.748697916666666 3.244357638888889  10.672526041666666 3.427734375  10.520182291666666 3.580078125  C 10.367838541666666 3.732421875  10.184461805555557 3.80859375  9.970052083333334 3.80859375  C 9.75564236111111 3.80859375  9.572265625 3.732421875  9.419921875 3.580078125  C 9.267578125 3.427734375  9.19140625 3.244357638888889  9.19140625 3.029947916666666  C 9.19140625 2.8155381944444438  9.267578125 2.632161458333334  9.419921875 2.479817708333334  C 9.572265625 2.327473958333334  9.75564236111111 2.251302083333334  9.970052083333334 2.251302083333334  C 10.184461805555557 2.251302083333334  10.367838541666666 2.327473958333334  10.520182291666666 2.479817708333334  Z M 7.1474609375 1.163736979166666  C 6.755316840277779 1.166558159722221  6.539496527777779 1.16796875  6.5 1.16796875  C 6.460503472222222 1.16796875  6.244683159722222 1.166558159722221  5.8525390625 1.163736979166666  C 5.460394965277779 1.1609157986111098  5.162760416666667 1.1609157986111098  4.959635416666667 1.163736979166666  C 4.756510416666667 1.166558159722221  4.484266493055555 1.1750217013888888  4.142903645833333 1.189127604166666  C 3.801540798611112 1.2032335069444438  3.5109592013888893 1.2314453125  3.271158854166667 1.273763020833334  C 3.0313585069444446 1.316080729166666  2.8296440972222223 1.3682725694444438  2.666015625 1.430338541666666  C 2.3838975694444446 1.5431857638888888  2.135633680555556 1.7068142361111098  1.9212239583333335 1.921223958333334  C 1.7068142361111112 2.135633680555555  1.5431857638888888 2.3838975694444438  1.4303385416666667 2.666015625  C 1.3682725694444446 2.829644097222221  1.3160807291666667 3.0313585069444438  1.2737630208333333 3.271158854166666  C 1.2314453125 3.510959201388889  1.2032335069444446 3.80154079861111  1.1891276041666667 4.142903645833334  C 1.1750217013888888 4.484266493055555  1.1665581597222223 4.756510416666666  1.1637369791666667 4.959635416666666  C 1.1609157986111112 5.162760416666666  1.1609157986111112 5.460394965277776  1.1637369791666667 5.8525390625  C 1.1665581597222223 6.244683159722221  1.16796875 6.460503472222221  1.16796875 6.5  C 1.16796875 6.539496527777778  1.1665581597222223 6.755316840277778  1.1637369791666667 7.1474609375  C 1.1609157986111112 7.539605034722222  1.1609157986111112 7.837239583333332  1.1637369791666667 8.040364583333332  C 1.1665581597222223 8.243489583333332  1.1750217013888888 8.515733506944443  1.1891276041666667 8.857096354166668  C 1.2032335069444446 9.198459201388888  1.2314453125 9.48904079861111  1.2737630208333333 9.728841145833332  C 1.3160807291666667 9.968641493055555  1.3682725694444446 10.170355902777777  1.4303385416666667 10.333984375  C 1.5431857638888888 10.616102430555555  1.7068142361111112 10.864366319444445  1.9212239583333335 11.078776041666666  C 2.135633680555556 11.29318576388889  2.3838975694444446 11.45681423611111  2.666015625 11.569661458333334  C 2.8296440972222223 11.631727430555555  3.0313585069444446 11.683919270833334  3.271158854166667 11.726236979166666  C 3.5109592013888893 11.7685546875  3.801540798611112 11.796766493055555  4.142903645833333 11.810872395833334  C 4.484266493055555 11.82497829861111  4.756510416666667 11.833441840277779  4.959635416666667 11.836263020833334  C 5.162760416666667 11.83908420138889  5.460394965277779 11.83908420138889  5.8525390625 11.836263020833334  C 6.244683159722222 11.833441840277779  6.460503472222222 11.83203125  6.5 11.83203125  C 6.539496527777779 11.83203125  6.755316840277779 11.833441840277779  7.1474609375 11.836263020833334  C 7.539605034722222 11.83908420138889  7.837239583333334 11.83908420138889  8.040364583333334 11.836263020833334  C 8.243489583333334 11.833441840277779  8.515733506944445 11.82497829861111  8.857096354166666 11.810872395833334  C 9.19845920138889 11.796766493055555  9.48904079861111 11.7685546875  9.728841145833334 11.726236979166666  C 9.968641493055557 11.683919270833334  10.170355902777779 11.631727430555555  10.333984375 11.569661458333334  C 10.616102430555557 11.45681423611111  10.864366319444445 11.29318576388889  11.078776041666666 11.078776041666666  C 11.29318576388889 10.864366319444445  11.45681423611111 10.616102430555555  11.569661458333334 10.333984375  C 11.631727430555557 10.170355902777777  11.683919270833334 9.968641493055555  11.726236979166666 9.728841145833332  C 11.7685546875 9.48904079861111  11.796766493055557 9.198459201388888  11.810872395833334 8.857096354166668  C 11.82497829861111 8.515733506944443  11.833441840277779 8.243489583333332  11.836263020833334 8.040364583333332  C 11.83908420138889 7.837239583333332  11.83908420138889 7.539605034722222  11.836263020833334 7.1474609375  C 11.833441840277779 6.755316840277778  11.83203125 6.539496527777778  11.83203125 6.5  C 11.83203125 6.460503472222221  11.833441840277779 6.244683159722221  11.836263020833334 5.8525390625  C 11.83908420138889 5.460394965277776  11.83908420138889 5.162760416666666  11.836263020833334 4.959635416666666  C 11.833441840277779 4.756510416666666  11.82497829861111 4.484266493055555  11.810872395833334 4.142903645833334  C 11.796766493055557 3.80154079861111  11.7685546875 3.510959201388889  11.726236979166666 3.271158854166666  C 11.683919270833334 3.0313585069444438  11.631727430555557 2.829644097222221  11.569661458333334 2.666015625  C 11.45681423611111 2.3838975694444438  11.29318576388889 2.135633680555555  11.078776041666666 1.921223958333334  C 10.864366319444445 1.7068142361111098  10.616102430555557 1.5431857638888888  10.333984375 1.430338541666666  C 10.170355902777779 1.3682725694444438  9.968641493055557 1.316080729166666  9.728841145833334 1.273763020833334  C 9.48904079861111 1.2314453125  9.19845920138889 1.2032335069444438  8.857096354166666 1.189127604166666  C 8.515733506944445 1.1750217013888888  8.243489583333334 1.166558159722221  8.040364583333334 1.163736979166666  C 7.837239583333334 1.1609157986111098  7.539605034722222 1.1609157986111098  7.1474609375 1.163736979166666  Z M 12.957682291666666 3.817057291666666  C 12.985894097222221 4.313585069444444  13 5.207899305555555  13 6.5  C 13 7.792100694444445  12.985894097222221 8.686414930555555  12.957682291666666 9.182942708333332  C 12.901258680555557 10.356553819444445  12.551432291666666 11.264973958333334  11.908203125 11.908203125  C 11.264973958333334 12.551432291666666  10.356553819444445 12.901258680555555  9.182942708333334 12.957682291666666  C 8.686414930555557 12.985894097222221  7.792100694444445 13  6.5 13  C 5.207899305555555 13  4.313585069444445 12.985894097222221  3.817057291666667 12.957682291666666  C 2.643446180555556 12.901258680555555  1.735026041666667 12.551432291666666  1.091796875 11.908203125  C 0.44856770833333337 11.264973958333334  0.09874131944444445 10.356553819444445  0.042317708333333336 9.182942708333332  C 0.014105902777777776 8.686414930555555  0 7.792100694444445  0 6.5  C 0 5.207899305555555  0.014105902777777776 4.313585069444444  0.042317708333333336 3.817057291666666  C 0.09874131944444445 2.643446180555555  0.44856770833333337 1.735026041666666  1.091796875 1.091796875  C 1.735026041666667 0.4485677083333338  2.643446180555556 0.09874131944444364  3.817057291666667 0.042317708333333814  C 4.313585069444445 0.014105902777776014  5.207899305555555 0  6.5 0  C 7.792100694444445 0  8.686414930555557 0.014105902777776014  9.182942708333334 0.042317708333333814  C 10.356553819444445 0.09874131944444364  11.264973958333334 0.4485677083333338  11.908203125 1.091796875  C 12.551432291666666 1.735026041666666  12.901258680555557 2.643446180555555  12.957682291666666 3.817057291666666  Z " fill-rule="evenodd" />
    </mask>
  </defs>
  <g transform="matrix(1 0 0 1 -310 -1748 )">
    <path d="M 8.031901041666666 8.031901041666668  C 8.455078125 7.608723958333332  8.666666666666666 7.098090277777778  8.666666666666666 6.5  C 8.666666666666666 5.901909722222221  8.455078125 5.391276041666666  8.031901041666666 4.968098958333334  C 7.608723958333334 4.544921875  7.098090277777779 4.333333333333334  6.5 4.333333333333334  C 5.901909722222222 4.333333333333334  5.391276041666667 4.544921875  4.968098958333333 4.968098958333334  C 4.544921875 5.391276041666666  4.333333333333333 5.901909722222221  4.333333333333333 6.5  C 4.333333333333333 7.098090277777778  4.544921875 7.608723958333332  4.968098958333333 8.031901041666668  C 5.391276041666667 8.455078125  5.901909722222222 8.666666666666668  6.5 8.666666666666668  C 7.098090277777779 8.666666666666668  7.608723958333334 8.455078125  8.031901041666666 8.031901041666668  Z M 8.861328125 4.138671875  C 9.510199652777779 4.787543402777776  9.834635416666666 5.574652777777776  9.834635416666666 6.5  C 9.834635416666666 7.425347222222222  9.510199652777779 8.212456597222223  8.861328125 8.861328125  C 8.212456597222223 9.510199652777777  7.425347222222222 9.834635416666666  6.5 9.834635416666666  C 5.574652777777779 9.834635416666666  4.787543402777779 9.510199652777777  4.138671875 8.861328125  C 3.4898003472222223 8.212456597222223  3.1653645833333335 7.425347222222222  3.1653645833333335 6.5  C 3.1653645833333335 5.574652777777776  3.4898003472222223 4.787543402777776  4.138671875 4.138671875  C 4.787543402777779 3.489800347222221  5.574652777777779 3.165364583333334  6.5 3.165364583333334  C 7.425347222222222 3.165364583333334  8.212456597222223 3.489800347222221  8.861328125 4.138671875  Z M 10.520182291666666 2.479817708333334  C 10.672526041666666 2.632161458333334  10.748697916666666 2.8155381944444438  10.748697916666666 3.029947916666666  C 10.748697916666666 3.244357638888889  10.672526041666666 3.427734375  10.520182291666666 3.580078125  C 10.367838541666666 3.732421875  10.184461805555557 3.80859375  9.970052083333334 3.80859375  C 9.75564236111111 3.80859375  9.572265625 3.732421875  9.419921875 3.580078125  C 9.267578125 3.427734375  9.19140625 3.244357638888889  9.19140625 3.029947916666666  C 9.19140625 2.8155381944444438  9.267578125 2.632161458333334  9.419921875 2.479817708333334  C 9.572265625 2.327473958333334  9.75564236111111 2.251302083333334  9.970052083333334 2.251302083333334  C 10.184461805555557 2.251302083333334  10.367838541666666 2.327473958333334  10.520182291666666 2.479817708333334  Z M 7.1474609375 1.163736979166666  C 6.755316840277779 1.166558159722221  6.539496527777779 1.16796875  6.5 1.16796875  C 6.460503472222222 1.16796875  6.244683159722222 1.166558159722221  5.8525390625 1.163736979166666  C 5.460394965277779 1.1609157986111098  5.162760416666667 1.1609157986111098  4.959635416666667 1.163736979166666  C 4.756510416666667 1.166558159722221  4.484266493055555 1.1750217013888888  4.142903645833333 1.189127604166666  C 3.801540798611112 1.2032335069444438  3.5109592013888893 1.2314453125  3.271158854166667 1.273763020833334  C 3.0313585069444446 1.316080729166666  2.8296440972222223 1.3682725694444438  2.666015625 1.430338541666666  C 2.3838975694444446 1.5431857638888888  2.135633680555556 1.7068142361111098  1.9212239583333335 1.921223958333334  C 1.7068142361111112 2.135633680555555  1.5431857638888888 2.3838975694444438  1.4303385416666667 2.666015625  C 1.3682725694444446 2.829644097222221  1.3160807291666667 3.0313585069444438  1.2737630208333333 3.271158854166666  C 1.2314453125 3.510959201388889  1.2032335069444446 3.80154079861111  1.1891276041666667 4.142903645833334  C 1.1750217013888888 4.484266493055555  1.1665581597222223 4.756510416666666  1.1637369791666667 4.959635416666666  C 1.1609157986111112 5.162760416666666  1.1609157986111112 5.460394965277776  1.1637369791666667 5.8525390625  C 1.1665581597222223 6.244683159722221  1.16796875 6.460503472222221  1.16796875 6.5  C 1.16796875 6.539496527777778  1.1665581597222223 6.755316840277778  1.1637369791666667 7.1474609375  C 1.1609157986111112 7.539605034722222  1.1609157986111112 7.837239583333332  1.1637369791666667 8.040364583333332  C 1.1665581597222223 8.243489583333332  1.1750217013888888 8.515733506944443  1.1891276041666667 8.857096354166668  C 1.2032335069444446 9.198459201388888  1.2314453125 9.48904079861111  1.2737630208333333 9.728841145833332  C 1.3160807291666667 9.968641493055555  1.3682725694444446 10.170355902777777  1.4303385416666667 10.333984375  C 1.5431857638888888 10.616102430555555  1.7068142361111112 10.864366319444445  1.9212239583333335 11.078776041666666  C 2.135633680555556 11.29318576388889  2.3838975694444446 11.45681423611111  2.666015625 11.569661458333334  C 2.8296440972222223 11.631727430555555  3.0313585069444446 11.683919270833334  3.271158854166667 11.726236979166666  C 3.5109592013888893 11.7685546875  3.801540798611112 11.796766493055555  4.142903645833333 11.810872395833334  C 4.484266493055555 11.82497829861111  4.756510416666667 11.833441840277779  4.959635416666667 11.836263020833334  C 5.162760416666667 11.83908420138889  5.460394965277779 11.83908420138889  5.8525390625 11.836263020833334  C 6.244683159722222 11.833441840277779  6.460503472222222 11.83203125  6.5 11.83203125  C 6.539496527777779 11.83203125  6.755316840277779 11.833441840277779  7.1474609375 11.836263020833334  C 7.539605034722222 11.83908420138889  7.837239583333334 11.83908420138889  8.040364583333334 11.836263020833334  C 8.243489583333334 11.833441840277779  8.515733506944445 11.82497829861111  8.857096354166666 11.810872395833334  C 9.19845920138889 11.796766493055555  9.48904079861111 11.7685546875  9.728841145833334 11.726236979166666  C 9.968641493055557 11.683919270833334  10.170355902777779 11.631727430555555  10.333984375 11.569661458333334  C 10.616102430555557 11.45681423611111  10.864366319444445 11.29318576388889  11.078776041666666 11.078776041666666  C 11.29318576388889 10.864366319444445  11.45681423611111 10.616102430555555  11.569661458333334 10.333984375  C 11.631727430555557 10.170355902777777  11.683919270833334 9.968641493055555  11.726236979166666 9.728841145833332  C 11.7685546875 9.48904079861111  11.796766493055557 9.198459201388888  11.810872395833334 8.857096354166668  C 11.82497829861111 8.515733506944443  11.833441840277779 8.243489583333332  11.836263020833334 8.040364583333332  C 11.83908420138889 7.837239583333332  11.83908420138889 7.539605034722222  11.836263020833334 7.1474609375  C 11.833441840277779 6.755316840277778  11.83203125 6.539496527777778  11.83203125 6.5  C 11.83203125 6.460503472222221  11.833441840277779 6.244683159722221  11.836263020833334 5.8525390625  C 11.83908420138889 5.460394965277776  11.83908420138889 5.162760416666666  11.836263020833334 4.959635416666666  C 11.833441840277779 4.756510416666666  11.82497829861111 4.484266493055555  11.810872395833334 4.142903645833334  C 11.796766493055557 3.80154079861111  11.7685546875 3.510959201388889  11.726236979166666 3.271158854166666  C 11.683919270833334 3.0313585069444438  11.631727430555557 2.829644097222221  11.569661458333334 2.666015625  C 11.45681423611111 2.3838975694444438  11.29318576388889 2.135633680555555  11.078776041666666 1.921223958333334  C 10.864366319444445 1.7068142361111098  10.616102430555557 1.5431857638888888  10.333984375 1.430338541666666  C 10.170355902777779 1.3682725694444438  9.968641493055557 1.316080729166666  9.728841145833334 1.273763020833334  C 9.48904079861111 1.2314453125  9.19845920138889 1.2032335069444438  8.857096354166666 1.189127604166666  C 8.515733506944445 1.1750217013888888  8.243489583333334 1.166558159722221  8.040364583333334 1.163736979166666  C 7.837239583333334 1.1609157986111098  7.539605034722222 1.1609157986111098  7.1474609375 1.163736979166666  Z M 12.957682291666666 3.817057291666666  C 12.985894097222221 4.313585069444444  13 5.207899305555555  13 6.5  C 13 7.792100694444445  12.985894097222221 8.686414930555555  12.957682291666666 9.182942708333332  C 12.901258680555557 10.356553819444445  12.551432291666666 11.264973958333334  11.908203125 11.908203125  C 11.264973958333334 12.551432291666666  10.356553819444445 12.901258680555555  9.182942708333334 12.957682291666666  C 8.686414930555557 12.985894097222221  7.792100694444445 13  6.5 13  C 5.207899305555555 13  4.313585069444445 12.985894097222221  3.817057291666667 12.957682291666666  C 2.643446180555556 12.901258680555555  1.735026041666667 12.551432291666666  1.091796875 11.908203125  C 0.44856770833333337 11.264973958333334  0.09874131944444445 10.356553819444445  0.042317708333333336 9.182942708333332  C 0.014105902777777776 8.686414930555555  0 7.792100694444445  0 6.5  C 0 5.207899305555555  0.014105902777777776 4.313585069444444  0.042317708333333336 3.817057291666666  C 0.09874131944444445 2.643446180555555  0.44856770833333337 1.735026041666666  1.091796875 1.091796875  C 1.735026041666667 0.4485677083333338  2.643446180555556 0.09874131944444364  3.817057291666667 0.042317708333333814  C 4.313585069444445 0.014105902777776014  5.207899305555555 0  6.5 0  C 7.792100694444445 0  8.686414930555557 0.014105902777776014  9.182942708333334 0.042317708333333814  C 10.356553819444445 0.09874131944444364  11.264973958333334 0.4485677083333338  11.908203125 1.091796875  C 12.551432291666666 1.735026041666666  12.901258680555557 2.643446180555555  12.957682291666666 3.817057291666666  Z " fill-rule="nonzero" fill="rgba(248, 248, 248, 1)" stroke="none" transform="matrix(1 0 0 1 310 1748 )" class="fill" />
    <path d="M 8.031901041666666 8.031901041666668  C 8.455078125 7.608723958333332  8.666666666666666 7.098090277777778  8.666666666666666 6.5  C 8.666666666666666 5.901909722222221  8.455078125 5.391276041666666  8.031901041666666 4.968098958333334  C 7.608723958333334 4.544921875  7.098090277777779 4.333333333333334  6.5 4.333333333333334  C 5.901909722222222 4.333333333333334  5.391276041666667 4.544921875  4.968098958333333 4.968098958333334  C 4.544921875 5.391276041666666  4.333333333333333 5.901909722222221  4.333333333333333 6.5  C 4.333333333333333 7.098090277777778  4.544921875 7.608723958333332  4.968098958333333 8.031901041666668  C 5.391276041666667 8.455078125  5.901909722222222 8.666666666666668  6.5 8.666666666666668  C 7.098090277777779 8.666666666666668  7.608723958333334 8.455078125  8.031901041666666 8.031901041666668  Z " stroke-width="0" stroke-dasharray="0" stroke="rgba(255, 255, 255, 0)" fill="none" transform="matrix(1 0 0 1 310 1748 )" class="stroke" mask="url(#Clip106)" />
    <path d="M 8.861328125 4.138671875  C 9.510199652777779 4.787543402777776  9.834635416666666 5.574652777777776  9.834635416666666 6.5  C 9.834635416666666 7.425347222222222  9.510199652777779 8.212456597222223  8.861328125 8.861328125  C 8.212456597222223 9.510199652777777  7.425347222222222 9.834635416666666  6.5 9.834635416666666  C 5.574652777777779 9.834635416666666  4.787543402777779 9.510199652777777  4.138671875 8.861328125  C 3.4898003472222223 8.212456597222223  3.1653645833333335 7.425347222222222  3.1653645833333335 6.5  C 3.1653645833333335 5.574652777777776  3.4898003472222223 4.787543402777776  4.138671875 4.138671875  C 4.787543402777779 3.489800347222221  5.574652777777779 3.165364583333334  6.5 3.165364583333334  C 7.425347222222222 3.165364583333334  8.212456597222223 3.489800347222221  8.861328125 4.138671875  Z " stroke-width="0" stroke-dasharray="0" stroke="rgba(255, 255, 255, 0)" fill="none" transform="matrix(1 0 0 1 310 1748 )" class="stroke" mask="url(#Clip106)" />
    <path d="M 10.520182291666666 2.479817708333334  C 10.672526041666666 2.632161458333334  10.748697916666666 2.8155381944444438  10.748697916666666 3.029947916666666  C 10.748697916666666 3.244357638888889  10.672526041666666 3.427734375  10.520182291666666 3.580078125  C 10.367838541666666 3.732421875  10.184461805555557 3.80859375  9.970052083333334 3.80859375  C 9.75564236111111 3.80859375  9.572265625 3.732421875  9.419921875 3.580078125  C 9.267578125 3.427734375  9.19140625 3.244357638888889  9.19140625 3.029947916666666  C 9.19140625 2.8155381944444438  9.267578125 2.632161458333334  9.419921875 2.479817708333334  C 9.572265625 2.327473958333334  9.75564236111111 2.251302083333334  9.970052083333334 2.251302083333334  C 10.184461805555557 2.251302083333334  10.367838541666666 2.327473958333334  10.520182291666666 2.479817708333334  Z " stroke-width="0" stroke-dasharray="0" stroke="rgba(255, 255, 255, 0)" fill="none" transform="matrix(1 0 0 1 310 1748 )" class="stroke" mask="url(#Clip106)" />
    <path d="M 7.1474609375 1.163736979166666  C 6.755316840277779 1.166558159722221  6.539496527777779 1.16796875  6.5 1.16796875  C 6.460503472222222 1.16796875  6.244683159722222 1.166558159722221  5.8525390625 1.163736979166666  C 5.460394965277779 1.1609157986111098  5.162760416666667 1.1609157986111098  4.959635416666667 1.163736979166666  C 4.756510416666667 1.166558159722221  4.484266493055555 1.1750217013888888  4.142903645833333 1.189127604166666  C 3.801540798611112 1.2032335069444438  3.5109592013888893 1.2314453125  3.271158854166667 1.273763020833334  C 3.0313585069444446 1.316080729166666  2.8296440972222223 1.3682725694444438  2.666015625 1.430338541666666  C 2.3838975694444446 1.5431857638888888  2.135633680555556 1.7068142361111098  1.9212239583333335 1.921223958333334  C 1.7068142361111112 2.135633680555555  1.5431857638888888 2.3838975694444438  1.4303385416666667 2.666015625  C 1.3682725694444446 2.829644097222221  1.3160807291666667 3.0313585069444438  1.2737630208333333 3.271158854166666  C 1.2314453125 3.510959201388889  1.2032335069444446 3.80154079861111  1.1891276041666667 4.142903645833334  C 1.1750217013888888 4.484266493055555  1.1665581597222223 4.756510416666666  1.1637369791666667 4.959635416666666  C 1.1609157986111112 5.162760416666666  1.1609157986111112 5.460394965277776  1.1637369791666667 5.8525390625  C 1.1665581597222223 6.244683159722221  1.16796875 6.460503472222221  1.16796875 6.5  C 1.16796875 6.539496527777778  1.1665581597222223 6.755316840277778  1.1637369791666667 7.1474609375  C 1.1609157986111112 7.539605034722222  1.1609157986111112 7.837239583333332  1.1637369791666667 8.040364583333332  C 1.1665581597222223 8.243489583333332  1.1750217013888888 8.515733506944443  1.1891276041666667 8.857096354166668  C 1.2032335069444446 9.198459201388888  1.2314453125 9.48904079861111  1.2737630208333333 9.728841145833332  C 1.3160807291666667 9.968641493055555  1.3682725694444446 10.170355902777777  1.4303385416666667 10.333984375  C 1.5431857638888888 10.616102430555555  1.7068142361111112 10.864366319444445  1.9212239583333335 11.078776041666666  C 2.135633680555556 11.29318576388889  2.3838975694444446 11.45681423611111  2.666015625 11.569661458333334  C 2.8296440972222223 11.631727430555555  3.0313585069444446 11.683919270833334  3.271158854166667 11.726236979166666  C 3.5109592013888893 11.7685546875  3.801540798611112 11.796766493055555  4.142903645833333 11.810872395833334  C 4.484266493055555 11.82497829861111  4.756510416666667 11.833441840277779  4.959635416666667 11.836263020833334  C 5.162760416666667 11.83908420138889  5.460394965277779 11.83908420138889  5.8525390625 11.836263020833334  C 6.244683159722222 11.833441840277779  6.460503472222222 11.83203125  6.5 11.83203125  C 6.539496527777779 11.83203125  6.755316840277779 11.833441840277779  7.1474609375 11.836263020833334  C 7.539605034722222 11.83908420138889  7.837239583333334 11.83908420138889  8.040364583333334 11.836263020833334  C 8.243489583333334 11.833441840277779  8.515733506944445 11.82497829861111  8.857096354166666 11.810872395833334  C 9.19845920138889 11.796766493055555  9.48904079861111 11.7685546875  9.728841145833334 11.726236979166666  C 9.968641493055557 11.683919270833334  10.170355902777779 11.631727430555555  10.333984375 11.569661458333334  C 10.616102430555557 11.45681423611111  10.864366319444445 11.29318576388889  11.078776041666666 11.078776041666666  C 11.29318576388889 10.864366319444445  11.45681423611111 10.616102430555555  11.569661458333334 10.333984375  C 11.631727430555557 10.170355902777777  11.683919270833334 9.968641493055555  11.726236979166666 9.728841145833332  C 11.7685546875 9.48904079861111  11.796766493055557 9.198459201388888  11.810872395833334 8.857096354166668  C 11.82497829861111 8.515733506944443  11.833441840277779 8.243489583333332  11.836263020833334 8.040364583333332  C 11.83908420138889 7.837239583333332  11.83908420138889 7.539605034722222  11.836263020833334 7.1474609375  C 11.833441840277779 6.755316840277778  11.83203125 6.539496527777778  11.83203125 6.5  C 11.83203125 6.460503472222221  11.833441840277779 6.244683159722221  11.836263020833334 5.8525390625  C 11.83908420138889 5.460394965277776  11.83908420138889 5.162760416666666  11.836263020833334 4.959635416666666  C 11.833441840277779 4.756510416666666  11.82497829861111 4.484266493055555  11.810872395833334 4.142903645833334  C 11.796766493055557 3.80154079861111  11.7685546875 3.510959201388889  11.726236979166666 3.271158854166666  C 11.683919270833334 3.0313585069444438  11.631727430555557 2.829644097222221  11.569661458333334 2.666015625  C 11.45681423611111 2.3838975694444438  11.29318576388889 2.135633680555555  11.078776041666666 1.921223958333334  C 10.864366319444445 1.7068142361111098  10.616102430555557 1.5431857638888888  10.333984375 1.430338541666666  C 10.170355902777779 1.3682725694444438  9.968641493055557 1.316080729166666  9.728841145833334 1.273763020833334  C 9.48904079861111 1.2314453125  9.19845920138889 1.2032335069444438  8.857096354166666 1.189127604166666  C 8.515733506944445 1.1750217013888888  8.243489583333334 1.166558159722221  8.040364583333334 1.163736979166666  C 7.837239583333334 1.1609157986111098  7.539605034722222 1.1609157986111098  7.1474609375 1.163736979166666  Z " stroke-width="0" stroke-dasharray="0" stroke="rgba(255, 255, 255, 0)" fill="none" transform="matrix(1 0 0 1 310 1748 )" class="stroke" mask="url(#Clip106)" />
    <path d="M 12.957682291666666 3.817057291666666  C 12.985894097222221 4.313585069444444  13 5.207899305555555  13 6.5  C 13 7.792100694444445  12.985894097222221 8.686414930555555  12.957682291666666 9.182942708333332  C 12.901258680555557 10.356553819444445  12.551432291666666 11.264973958333334  11.908203125 11.908203125  C 11.264973958333334 12.551432291666666  10.356553819444445 12.901258680555555  9.182942708333334 12.957682291666666  C 8.686414930555557 12.985894097222221  7.792100694444445 13  6.5 13  C 5.207899305555555 13  4.313585069444445 12.985894097222221  3.817057291666667 12.957682291666666  C 2.643446180555556 12.901258680555555  1.735026041666667 12.551432291666666  1.091796875 11.908203125  C 0.44856770833333337 11.264973958333334  0.09874131944444445 10.356553819444445  0.042317708333333336 9.182942708333332  C 0.014105902777777776 8.686414930555555  0 7.792100694444445  0 6.5  C 0 5.207899305555555  0.014105902777777776 4.313585069444444  0.042317708333333336 3.817057291666666  C 0.09874131944444445 2.643446180555555  0.44856770833333337 1.735026041666666  1.091796875 1.091796875  C 1.735026041666667 0.4485677083333338  2.643446180555556 0.09874131944444364  3.817057291666667 0.042317708333333814  C 4.313585069444445 0.014105902777776014  5.207899305555555 0  6.5 0  C 7.792100694444445 0  8.686414930555557 0.014105902777776014  9.182942708333334 0.042317708333333814  C 10.356553819444445 0.09874131944444364  11.264973958333334 0.4485677083333338  11.908203125 1.091796875  C 12.551432291666666 1.735026041666666  12.901258680555557 2.643446180555555  12.957682291666666 3.817057291666666  Z " stroke-width="0" stroke-dasharray="0" stroke="rgba(255, 255, 255, 0)" fill="none" transform="matrix(1 0 0 1 310 1748 )" class="stroke" mask="url(#Clip106)" />
  </g>
</svg>