<?xml version="1.0" encoding="utf-8"?>
<svg version="1.1" xmlns:xlink="http://www.w3.org/1999/xlink" width="7px" height="14px" xmlns="http://www.w3.org/2000/svg">
  <defs>
    <pattern id="BGPattern" patternUnits="userSpaceOnUse" alignment="0 0" imageRepeat="None" />
    <mask fill="white" id="Clip107">
      <path d="M 5.152777777777779 0  C 5.9467592592592595 0  6.5625 0.033653846153846034  7 0.1009615384615381  L 7 2.322115384615384  L 5.7280092592592595 2.322115384615384  C 5.263503086419754 2.322115384615384  4.950231481481482 2.423076923076924  4.788194444444445 2.625  C 4.626157407407407 2.826923076923076  4.545138888888889 3.129807692307692  4.545138888888889 3.533653846153846  L 4.545138888888889 5.123798076923077  L 6.918981481481482 5.123798076923077  L 6.6030092592592595 7.614182692307692  L 4.545138888888889 7.614182692307692  L 4.545138888888889 14  L 2.0659722222222223 14  L 2.0659722222222223 7.614182692307692  L 0 7.614182692307692  L 0 5.123798076923077  L 2.0659722222222223 5.123798076923077  L 2.0659722222222223 3.2896634615384617  C 2.0659722222222223 2.24639423076923  2.3468364197530867 1.4372996794871788  2.908564814814815 0.8623798076923079  C 3.4702932098765435 0.287459935897437  4.218364197530865 0  5.152777777777779 0  Z " fill-rule="evenodd" />
    </mask>
  </defs>
  <g transform="matrix(1 0 0 1 -344 -1747 )">
    <path d="M 5.152777777777779 0  C 5.9467592592592595 0  6.5625 0.033653846153846034  7 0.1009615384615381  L 7 2.322115384615384  L 5.7280092592592595 2.322115384615384  C 5.263503086419754 2.322115384615384  4.950231481481482 2.423076923076924  4.788194444444445 2.625  C 4.626157407407407 2.826923076923076  4.545138888888889 3.129807692307692  4.545138888888889 3.533653846153846  L 4.545138888888889 5.123798076923077  L 6.918981481481482 5.123798076923077  L 6.6030092592592595 7.614182692307692  L 4.545138888888889 7.614182692307692  L 4.545138888888889 14  L 2.0659722222222223 14  L 2.0659722222222223 7.614182692307692  L 0 7.614182692307692  L 0 5.123798076923077  L 2.0659722222222223 5.123798076923077  L 2.0659722222222223 3.2896634615384617  C 2.0659722222222223 2.24639423076923  2.3468364197530867 1.4372996794871788  2.908564814814815 0.8623798076923079  C 3.4702932098765435 0.287459935897437  4.218364197530865 0  5.152777777777779 0  Z " fill-rule="nonzero" fill="rgba(248, 248, 248, 1)" stroke="none" transform="matrix(1 0 0 1 344 1747 )" class="fill" />
    <path d="M 5.152777777777779 0  C 5.9467592592592595 0  6.5625 0.033653846153846034  7 0.1009615384615381  L 7 2.322115384615384  L 5.7280092592592595 2.322115384615384  C 5.263503086419754 2.322115384615384  4.950231481481482 2.423076923076924  4.788194444444445 2.625  C 4.626157407407407 2.826923076923076  4.545138888888889 3.129807692307692  4.545138888888889 3.533653846153846  L 4.545138888888889 5.123798076923077  L 6.918981481481482 5.123798076923077  L 6.6030092592592595 7.614182692307692  L 4.545138888888889 7.614182692307692  L 4.545138888888889 14  L 2.0659722222222223 14  L 2.0659722222222223 7.614182692307692  L 0 7.614182692307692  L 0 5.123798076923077  L 2.0659722222222223 5.123798076923077  L 2.0659722222222223 3.2896634615384617  C 2.0659722222222223 2.24639423076923  2.3468364197530867 1.4372996794871788  2.908564814814815 0.8623798076923079  C 3.4702932098765435 0.287459935897437  4.218364197530865 0  5.152777777777779 0  Z " stroke-width="0" stroke-dasharray="0" stroke="rgba(255, 255, 255, 0)" fill="none" transform="matrix(1 0 0 1 344 1747 )" class="stroke" mask="url(#Clip107)" />
  </g>
</svg>