<?xml version="1.0" encoding="utf-8"?>
<svg version="1.1" xmlns:xlink="http://www.w3.org/1999/xlink" width="85px" height="53px" xmlns="http://www.w3.org/2000/svg">
  <defs>
    <pattern id="BGPattern" patternUnits="userSpaceOnUse" alignment="0 0" imageRepeat="None" />
    <radialGradient cx="42.5" cy="26.5" r="42.5" gradientTransform="matrix(-1 0 -0 -0.6235294117647059 85 43.023529411764706 )" gradientUnits="userSpaceOnUse" id="RadialGradient108">
      <stop id="Stop109" stop-color="#877bcf" offset="0" />
      <stop id="Stop110" stop-color="#000000" offset="1" />
    </radialGradient>
    <mask fill="white" id="Clip111">
      <path d="M 0 45  L 0 8  C 0 3.5199999999999996  3.5199999999999996 0  8 0  L 77 0  C 81.48 0  85 3.5199999999999996  85 8  L 85 45  C 85 49.48  81.48 53  77 53  L 8 53  C 3.5199999999999996 53  0 49.48  0 45  Z " fill-rule="evenodd" />
    </mask>
  </defs>
  <g transform="matrix(1 0 0 1 -207 -1369 )">
    <path d="M 0 45  L 0 8  C 0 3.5199999999999996  3.5199999999999996 0  8 0  L 77 0  C 81.48 0  85 3.5199999999999996  85 8  L 85 45  C 85 49.48  81.48 53  77 53  L 8 53  C 3.5199999999999996 53  0 49.48  0 45  Z " fill-rule="nonzero" fill="rgba(51, 51, 51, 1)" stroke="none" transform="matrix(1 0 0 1 207 1369 )" class="fill" />
    <path d="M 0 45  L 0 8  C 0 3.5199999999999996  3.5199999999999996 0  8 0  L 77 0  C 81.48 0  85 3.5199999999999996  85 8  L 85 45  C 85 49.48  81.48 53  77 53  L 8 53  C 3.5199999999999996 53  0 49.48  0 45  Z " stroke-width="0" stroke-dasharray="0" stroke="url(#RadialGradient108)" fill="none" transform="matrix(1 0 0 1 207 1369 )" class="stroke" mask="url(#Clip111)" />
  </g>
</svg>