<?xml version="1.0" encoding="utf-8"?>
<svg version="1.1" xmlns:xlink="http://www.w3.org/1999/xlink" width="11px" height="17px" xmlns="http://www.w3.org/2000/svg">
  <defs>
    <pattern id="BGPattern" patternUnits="userSpaceOnUse" alignment="0 0" imageRepeat="None" />
    <mask fill="white" id="Clip112">
      <path d="M 11 2.4255583126550864  C 11 2.6083540115798174  10.932754182754183 2.766542597187757  10.798262548262548 2.9001240694789088  L 5.16023166023166 8.5  L 10.798262548262548 14.099875930521092  C 10.932754182754183 14.233457402812242  11 14.391645988420183  11 14.574441687344914  C 11 14.757237386269644  10.932754182754183 14.915425971877584  10.798262548262548 15.049007444168735  L 9.035714285714285 16.799627791563275  C 8.901222651222652 16.933209263854426  8.741956241956242 17  8.557915057915057 17  C 8.373873873873874 17  8.214607464607466 16.933209263854426  8.08011583011583 16.799627791563275  L 0.20173745173745175 8.974565756823822  C 0.06724581724581735 8.84098428453267  0 8.682795698924732  0 8.5  C 0 8.317204301075268  0.06724581724581735 8.159015715467328  0.20173745173745175 8.025434243176178  L 8.08011583011583 0.2003722084367241  C 8.214607464607466 0.06679073614557407  8.373873873873874 0  8.557915057915057 0  C 8.741956241956242 0  8.901222651222652 0.06679073614557407  9.035714285714285 0.2003722084367241  L 10.798262548262548 1.9509925558312655  C 10.932754182754183 2.0845740281224137  11 2.242762613730353  11 2.4255583126550864  Z " fill-rule="evenodd" />
    </mask>
  </defs>
  <g transform="matrix(1 0 0 1 -6 -470 )">
    <path d="M 11 2.4255583126550864  C 11 2.6083540115798174  10.932754182754183 2.766542597187757  10.798262548262548 2.9001240694789088  L 5.16023166023166 8.5  L 10.798262548262548 14.099875930521092  C 10.932754182754183 14.233457402812242  11 14.391645988420183  11 14.574441687344914  C 11 14.757237386269644  10.932754182754183 14.915425971877584  10.798262548262548 15.049007444168735  L 9.035714285714285 16.799627791563275  C 8.901222651222652 16.933209263854426  8.741956241956242 17  8.557915057915057 17  C 8.373873873873874 17  8.214607464607466 16.933209263854426  8.08011583011583 16.799627791563275  L 0.20173745173745175 8.974565756823822  C 0.06724581724581735 8.84098428453267  0 8.682795698924732  0 8.5  C 0 8.317204301075268  0.06724581724581735 8.159015715467328  0.20173745173745175 8.025434243176178  L 8.08011583011583 0.2003722084367241  C 8.214607464607466 0.06679073614557407  8.373873873873874 0  8.557915057915057 0  C 8.741956241956242 0  8.901222651222652 0.06679073614557407  9.035714285714285 0.2003722084367241  L 10.798262548262548 1.9509925558312655  C 10.932754182754183 2.0845740281224137  11 2.242762613730353  11 2.4255583126550864  Z " fill-rule="nonzero" fill="rgba(248, 248, 248, 1)" stroke="none" transform="matrix(1 0 0 1 6 470 )" class="fill" />
    <path d="M 11 2.4255583126550864  C 11 2.6083540115798174  10.932754182754183 2.766542597187757  10.798262548262548 2.9001240694789088  L 5.16023166023166 8.5  L 10.798262548262548 14.099875930521092  C 10.932754182754183 14.233457402812242  11 14.391645988420183  11 14.574441687344914  C 11 14.757237386269644  10.932754182754183 14.915425971877584  10.798262548262548 15.049007444168735  L 9.035714285714285 16.799627791563275  C 8.901222651222652 16.933209263854426  8.741956241956242 17  8.557915057915057 17  C 8.373873873873874 17  8.214607464607466 16.933209263854426  8.08011583011583 16.799627791563275  L 0.20173745173745175 8.974565756823822  C 0.06724581724581735 8.84098428453267  0 8.682795698924732  0 8.5  C 0 8.317204301075268  0.06724581724581735 8.159015715467328  0.20173745173745175 8.025434243176178  L 8.08011583011583 0.2003722084367241  C 8.214607464607466 0.06679073614557407  8.373873873873874 0  8.557915057915057 0  C 8.741956241956242 0  8.901222651222652 0.06679073614557407  9.035714285714285 0.2003722084367241  L 10.798262548262548 1.9509925558312655  C 10.932754182754183 2.0845740281224137  11 2.242762613730353  11 2.4255583126550864  Z " stroke-width="0" stroke-dasharray="0" stroke="rgba(255, 255, 255, 0)" fill="none" transform="matrix(1 0 0 1 6 470 )" class="stroke" mask="url(#Clip112)" />
  </g>
</svg>